<svg width="40" height="40" viewBox="0 0 32 31" fill="none" xmlns="http://www.w3.org/2000/svg">
<g filter="url(#filter0_d_51_3)">
<path d="M8.98 2.5C8.98 3.881 7.87 5 6.5 5C5.13 5 4.02 3.881 4.02 2.5C4.02 1.12 5.13 0 6.5 0C7.87 0 8.98 1.12 8.98 2.5ZM9 7H4V23H9V7ZM16.982 7H12.014V23H16.983V14.601C16.983 9.931 23.012 9.549 23.012 14.601V23H28V12.869C28 4.989 19.078 5.276 16.982 9.155V7Z" fill="#0E76A8"/>
</g>
<defs>
<filter id="filter0_d_51_3" x="0" y="0" width="32" height="31" filterUnits="userSpaceOnUse" color-interpolation-filters="sRGB">
<feFlood flood-opacity="0" result="BackgroundImageFix"/>
<feColorMatrix in="SourceAlpha" type="matrix" values="0 0 0 0 0 0 0 0 0 0 0 0 0 0 0 0 0 0 127 0" result="hardAlpha"/>
<feOffset dy="4"/>
<feGaussianBlur stdDeviation="2"/>
<feComposite in2="hardAlpha" operator="out"/>
<feColorMatrix type="matrix" values="0 0 0 0 0 0 0 0 0 0 0 0 0 0 0 0 0 0 0.25 0"/>
<feBlend mode="normal" in2="BackgroundImageFix" result="effect1_dropShadow_51_3"/>
<feBlend mode="normal" in="SourceGraphic" in2="effect1_dropShadow_51_3" result="shape"/>
</filter>
</defs>
</svg>
