<svg xmlns="http://www.w3.org/2000/svg" xmlns:xlink="http://www.w3.org/1999/xlink" viewBox="0 0 77.01 42.46"><defs><style>.cls-1{fill:#231f20;}.cls-2{fill:url(#linear-gradient);}.cls-3{fill:url(#linear-gradient-2);}</style><linearGradient id="linear-gradient" x1="50.36" y1="12.12" x2="32.38" y2="1.46" gradientUnits="userSpaceOnUse"><stop offset="0" stop-color="#9d2063"/><stop offset="1" stop-color="#4a2e8c"/></linearGradient><linearGradient id="linear-gradient-2" x1="47.26" y1="17.35" x2="29.29" y2="6.68" xlink:href="#linear-gradient"/></defs><g id="Layer_2" data-name="Layer 2"><g id="Layer_1-2" data-name="Layer 1"><path class="cls-1" d="M0,27.61H4.21c3.88,0,6.46,2.24,6.46,5.61s-2.58,5.61-6.46,5.61H0Zm4.21,2.07H2.57v7.09H4.21C6.49,36.77,8,35.4,8,33.22S6.49,29.68,4.21,29.68Z"/><path class="cls-1" d="M17.67,36.27l2.06.45a4,4,0,0,1-4,2.43,4.25,4.25,0,0,1-4.45-4.41,4.2,4.2,0,0,1,4.45-4.29,4.43,4.43,0,0,1,4.31,5l-6.32,0a2.1,2.1,0,0,0,2.07,1.88A2,2,0,0,0,17.67,36.27Zm0-2.23a2,2,0,0,0-4,0Z"/><path class="cls-1" d="M19.86,30.76h2.52l2,6.28,2-6.28h2.54l-2.83,8.07H22.68Z"/><path class="cls-1" d="M29.19,35.15h2.38c0,1.21,1.09,2.08,2.6,2.08,1.31,0,2.1-.65,2.1-1.45,0-2.38-7-.38-7-4.84,0-2.21,1.88-3.72,4.59-3.72s4.69,1.64,4.69,3.89h-2.3c0-1.1-1-1.89-2.33-1.89s-2.08.58-2.08,1.37c0,2.29,7,.32,7,4.81,0,2.24-1.91,3.83-4.76,3.83S29.19,37.51,29.19,35.15Z"/><path class="cls-1" d="M42.27,42.46H39.91V30.76h2.33v1a3.37,3.37,0,0,1,2.69-1.29c2.24,0,3.83,1.8,3.83,4.35s-1.57,4.35-3.83,4.35a3.27,3.27,0,0,1-2.66-1.29Zm2-9.88A2.22,2.22,0,1,0,46.4,34.8,2.1,2.1,0,0,0,44.29,32.58Z"/><path class="cls-1" d="M55.9,30.76h2.37v8.07H55.9V37.72a3.29,3.29,0,0,1-2.74,1.43c-2.27,0-3.86-1.8-3.86-4.35s1.59-4.35,3.86-4.35a3.29,3.29,0,0,1,2.74,1.43Zm0,4a2.12,2.12,0,1,0-2.11,2.27A2.12,2.12,0,0,0,55.89,34.8Z"/><path class="cls-1" d="M65.49,33.93a2,2,0,0,0-1.91-1.49,2.17,2.17,0,0,0-2,2.36,2.16,2.16,0,0,0,2,2.36,2,2,0,0,0,1.92-1.49l2.21.28a4.05,4.05,0,0,1-4.15,3.2,4.35,4.35,0,1,1,0-8.7,4,4,0,0,1,4.13,3.2Z"/><path class="cls-1" d="M74.58,36.27l2.07.45a4,4,0,0,1-4,2.43,4.25,4.25,0,0,1-4.45-4.41,4.2,4.2,0,0,1,4.45-4.29A4.13,4.13,0,0,1,77,34.77a5.47,5.47,0,0,1,0,.71l-6.32,0a2.08,2.08,0,0,0,2.06,1.88A2,2,0,0,0,74.58,36.27Zm0-2.23a2,2,0,0,0-4,0Z"/><path class="cls-2" d="M48.37,8.7h0l-.26-.26L48,8.29a1.4,1.4,0,0,1-.05-1.92h0L48,6.3h0l1.18-1.18a.79.79,0,0,0,0-1.11L45.38.24a.78.78,0,0,0-1.11,0L43.06,1.44a1.38,1.38,0,0,1-1.9.05L39.9.23a.77.77,0,0,0-1.1,0L37.16,1.87a.77.77,0,0,0,0,1.09L38.8,4.61a.78.78,0,0,0,1.1,0l.79-.8.41-.41a1.4,1.4,0,0,1,1.92,0l0,0,0,0s0,0,0,0h0l2.49,2.49.41.41a1.39,1.39,0,0,1,0,1.92h0L40.7,13.59a.78.78,0,0,0,0,1.1l1.57,1.57a.78.78,0,0,0,1.1,0l5.73-5.73a.78.78,0,0,0,0-1.1Z"/><path class="cls-3" d="M36.93,11.88a.77.77,0,0,0-1.09,0l-1.21,1.21a1.4,1.4,0,0,1-1.92,0l0,0,0,0h0l-2.49-2.49-.41-.41a1.4,1.4,0,0,1,0-1.92L35,2.9a.78.78,0,0,0,0-1.1L33.46.23a.77.77,0,0,0-1.1,0L26.63,6a.77.77,0,0,0,0,1.09l.73.74.41.4a1.4,1.4,0,0,1,.05,1.92h0l-.07.07h0l-1.18,1.18a.79.79,0,0,0,0,1.11l3.77,3.76a.79.79,0,0,0,1.11,0l1.21-1.21a1.37,1.37,0,0,1,1.9-.05l1.27,1.26a.77.77,0,0,0,1.09,0l1.64-1.64a.78.78,0,0,0,0-1.1Z"/></g></g></svg>