<svg xmlns="http://www.w3.org/2000/svg" xmlns:xlink="http://www.w3.org/1999/xlink" viewBox="0 0 106.7 33.77"><defs><style>.cls-1{fill:#231f20;}.cls-2{fill:url(#linear-gradient);}.cls-3{fill:url(#linear-gradient-2);}</style><linearGradient id="linear-gradient" x1="42.86" y1="21.38" x2="4.78" y2="4.93" gradientUnits="userSpaceOnUse"><stop offset="0" stop-color="#9d2063"/><stop offset="1" stop-color="#4a2e8c"/></linearGradient><linearGradient id="linear-gradient-2" x1="39.7" y1="28.68" x2="1.63" y2="12.23" xlink:href="#linear-gradient"/></defs><g id="Layer_2" data-name="Layer 2"><g id="Layer_1-2" data-name="Layer 1"><path class="cls-1" d="M51.5,0h5c4.58,0,7.63,2.64,7.63,6.63s-3,6.62-7.63,6.62h-5Zm5,2.44H54.53v8.38h1.94c2.7,0,4.52-1.62,4.52-4.19S59.17,2.44,56.47,2.44Z"/><path class="cls-1" d="M72.18,10.22l2.43.54c-.5,1.66-2.45,2.87-4.71,2.87a5,5,0,0,1-5.25-5.22A5,5,0,0,1,69.9,3.35,4.88,4.88,0,0,1,75,8.45a7.58,7.58,0,0,1,0,.84l-7.47,0A2.47,2.47,0,0,0,70,11.49,2.41,2.41,0,0,0,72.18,10.22Zm0-2.63a2.36,2.36,0,0,0-4.69,0Z"/><path class="cls-1" d="M74.57,3.72h3l2.35,7.41,2.32-7.41h3l-3.33,9.53h-4Z"/><path class="cls-1" d="M51,25.14h2.81c0,1.43,1.28,2.45,3.07,2.45,1.54,0,2.47-.76,2.47-1.71,0-2.81-8.22-.45-8.22-5.71,0-2.61,2.21-4.4,5.41-4.4s5.55,1.94,5.55,4.6H59.35c0-1.3-1.15-2.23-2.75-2.23s-2.46.68-2.46,1.62c0,2.7,8.25.37,8.25,5.67,0,2.65-2.26,4.53-5.62,4.53S51,27.93,51,25.14Z"/><path class="cls-1" d="M66.24,33.77h-2.8V20H66.2v1.15a4,4,0,0,1,3.18-1.52c2.65,0,4.53,2.12,4.53,5.14s-1.86,5.13-4.53,5.13a3.84,3.84,0,0,1-3.14-1.52ZM68.62,22.1a2.48,2.48,0,0,0-2.49,2.63,2.49,2.49,0,1,0,5,0A2.48,2.48,0,0,0,68.62,22.1Z"/><path class="cls-1" d="M82.15,20h2.79v9.53H82.15V28.17a3.86,3.86,0,0,1-3.24,1.69c-2.68,0-4.56-2.12-4.56-5.13s1.88-5.14,4.56-5.14a3.86,3.86,0,0,1,3.24,1.69Zm0,4.77a2.5,2.5,0,1,0-5,0,2.5,2.5,0,1,0,5,0Z"/><path class="cls-1" d="M93.28,23.7A2.33,2.33,0,0,0,91,21.93a2.57,2.57,0,0,0-2.42,2.8A2.55,2.55,0,0,0,91,27.52a2.35,2.35,0,0,0,2.27-1.77l2.6.33A4.76,4.76,0,0,1,91,29.86a5,5,0,0,1-5.2-5.13A5,5,0,0,1,91,19.59a4.68,4.68,0,0,1,4.87,3.78Z"/><path class="cls-1" d="M103.83,26.46l2.44.54c-.5,1.65-2.46,2.86-4.71,2.86a5,5,0,0,1-5.25-5.21,5,5,0,0,1,5.25-5.06,4.88,4.88,0,0,1,5.14,5.1,5.7,5.7,0,0,1,0,.84l-7.46,0a2.46,2.46,0,0,0,2.43,2.21A2.4,2.4,0,0,0,103.83,26.46Zm0-2.63a2.36,2.36,0,0,0-4.69,0Z"/><path class="cls-2" d="M37.15,16.36l-.69-.69a2.35,2.35,0,0,1-.08-3.23h0l.12-.12h0l2-2a1.33,1.33,0,0,0,0-1.87L32.12,2.1a1.33,1.33,0,0,0-1.88,0L28.89,3.42h0l-.28.28-.41.41a2.35,2.35,0,0,1-3.21.1L22.86,2.07a1.31,1.31,0,0,0-1.85,0L18.24,4.84a1.31,1.31,0,0,0,0,1.85L21,9.46a1.31,1.31,0,0,0,1.85,0l1.35-1.35h0l.68-.69a2.36,2.36,0,0,1,3.24-.08l.05,0,.05.05,0,0h0l4.2,4.2.69.69a2.36,2.36,0,0,1,.08,3.24l-9,9a1.3,1.3,0,0,0,0,1.84l2.66,2.66a1.3,1.3,0,0,0,1.84,0l9.67-9.67a1.31,1.31,0,0,0,0-1.85Z"/><path class="cls-3" d="M17.86,21.72a1.31,1.31,0,0,0-1.85,0l-1.34,1.35-.69.69a2.35,2.35,0,0,1-3.24.07l0,0-.06-.05,0,0h0L5.72,18.82a2.35,2.35,0,0,1-.07-3.24l9-9a1.31,1.31,0,0,0,0-1.85L12,2.07a1.3,1.3,0,0,0-1.84,0L.49,11.74a1.31,1.31,0,0,0,0,1.85l1.23,1.23.69.69a2.35,2.35,0,0,1,.08,3.23h0l-.11.12h0l-2,2a1.33,1.33,0,0,0,0,1.87l6.35,6.35a1.33,1.33,0,0,0,1.88,0L10,27.76l.69-.69a2.35,2.35,0,0,1,3.21-.1L16,29.11a1.31,1.31,0,0,0,1.85,0l2.77-2.77a1.31,1.31,0,0,0,0-1.85Z"/></g></g></svg>