<svg xmlns="http://www.w3.org/2000/svg" xmlns:xlink="http://www.w3.org/1999/xlink" viewBox="0 0 110.74 17.92"><defs><style>.cls-1{fill:#231f20;}.cls-2{fill:url(#linear-gradient);}.cls-3{fill:url(#linear-gradient-2);}</style><linearGradient id="linear-gradient" x1="22.41" y1="10.21" x2="1.85" y2="2.02" gradientUnits="userSpaceOnUse"><stop offset="0" stop-color="#9d2063"/><stop offset="1" stop-color="#4a2e8c"/></linearGradient><linearGradient id="linear-gradient-2" x1="20.78" y1="14.3" x2="0.22" y2="6.11" xlink:href="#linear-gradient"/></defs><g id="Layer_2" data-name="Layer 2"><g id="Layer_1-2" data-name="Layer 1"><path class="cls-1" d="M33.73,3.07h4.21c3.88,0,6.46,2.24,6.46,5.61s-2.58,5.61-6.46,5.61H33.73Zm4.21,2.07H36.3v7.09h1.64c2.29,0,3.83-1.37,3.83-3.55S40.23,5.14,37.94,5.14Z"/><path class="cls-1" d="M51.4,11.73l2.07.45a4,4,0,0,1-4,2.43A4.25,4.25,0,0,1,45,10.2a4.19,4.19,0,0,1,4.45-4.29,4.13,4.13,0,0,1,4.35,4.32,5.47,5.47,0,0,1,0,.71l-6.32,0a2.08,2.08,0,0,0,2.06,1.88A2,2,0,0,0,51.4,11.73Zm0-2.23a2,2,0,0,0-4,0Z"/><path class="cls-1" d="M53.59,6.22h2.52l2,6.28,2-6.28h2.54l-2.82,8.07H56.41Z"/><path class="cls-1" d="M62.92,10.61H65.3c0,1.21,1.09,2.08,2.6,2.08,1.31,0,2.1-.65,2.1-1.45,0-2.38-7-.38-7-4.84,0-2.21,1.88-3.72,4.59-3.72s4.7,1.64,4.7,3.89H70c0-1.1-1-1.89-2.34-1.89s-2.08.58-2.08,1.37c0,2.29,7,.32,7,4.81,0,2.24-1.9,3.83-4.76,3.83S62.92,13,62.92,10.61Z"/><path class="cls-1" d="M76,17.92H73.64V6.22H76v1a3.37,3.37,0,0,1,2.7-1.29c2.24,0,3.83,1.8,3.83,4.35s-1.58,4.35-3.83,4.35A3.27,3.27,0,0,1,76,13.32ZM78,8a2.1,2.1,0,0,0-2.11,2.22,2.11,2.11,0,1,0,4.22,0A2.1,2.1,0,0,0,78,8Z"/><path class="cls-1" d="M89.64,6.22H92v8.07H89.64V13.17a3.29,3.29,0,0,1-2.75,1.44c-2.27,0-3.86-1.8-3.86-4.35s1.59-4.35,3.86-4.35a3.28,3.28,0,0,1,2.75,1.43Zm0,4a2.12,2.12,0,1,0-4.22,0,2.12,2.12,0,1,0,4.22,0Z"/><path class="cls-1" d="M99.22,9.39a2,2,0,0,0-1.91-1.5,2.18,2.18,0,0,0-2,2.37,2.16,2.16,0,0,0,2,2.36,2,2,0,0,0,1.93-1.49l2.2.28a4,4,0,0,1-4.14,3.2,4.24,4.24,0,0,1-4.4-4.35,4.23,4.23,0,0,1,4.4-4.35,4,4,0,0,1,4.13,3.2Z"/><path class="cls-1" d="M108.31,11.73l2.07.45a4,4,0,0,1-4,2.43A4.24,4.24,0,0,1,102,10.2a4.18,4.18,0,0,1,4.44-4.29,4.12,4.12,0,0,1,4.35,4.32,5.47,5.47,0,0,1,0,.71l-6.32,0a2.08,2.08,0,0,0,2.06,1.88A2,2,0,0,0,108.31,11.73Zm0-2.23a2,2,0,0,0-4,0Z"/><path class="cls-2" d="M21.77,8.44l-.15-.15a1.4,1.4,0,0,1-.05-1.92h0l.07-.07h0l1.18-1.18a.79.79,0,0,0,0-1.11L19,.24a.78.78,0,0,0-1.11,0l-.8.8-.41.41a1.38,1.38,0,0,1-1.9.05L13.55.23a.76.76,0,0,0-1.09,0L10.82,1.87a.77.77,0,0,0,0,1.09l1.64,1.65a.77.77,0,0,0,1.09,0l.8-.8.41-.41a1.4,1.4,0,0,1,1.92,0l0,0,0,0s0,0,0,0h0l2.49,2.49h0l.41.41a1.4,1.4,0,0,1,0,1.92l-5.34,5.34a.78.78,0,0,0,0,1.1l1.57,1.57a.78.78,0,0,0,1.1,0l5.73-5.73a.78.78,0,0,0,0-1.1Z"/><path class="cls-3" d="M10.59,11.88a.78.78,0,0,0-1.1,0l-.79.8-.41.41a1.4,1.4,0,0,1-1.92,0l0,0,0,0h0L3.8,10.57h0l-.41-.41a1.39,1.39,0,0,1,0-1.92L8.69,2.9a.78.78,0,0,0,0-1.1L7.12.23A.77.77,0,0,0,6,.23L.29,6a.77.77,0,0,0,0,1.09L1,7.79H1l.41.4a1.4,1.4,0,0,1,.05,1.92h0l-.07.07h0L.22,11.37a.79.79,0,0,0,0,1.11L4,16.24a.79.79,0,0,0,1.11,0l.8-.8.41-.41A1.37,1.37,0,0,1,8.23,15l1.26,1.26a.78.78,0,0,0,1.1,0l1.64-1.64a.78.78,0,0,0,0-1.1Z"/></g></g></svg>